<?xml version="1.0" standalone="no"?><!DOCTYPE svg PUBLIC "-//W3C//DTD SVG 1.1//EN" "http://www.w3.org/Graphics/SVG/1.1/DTD/svg11.dtd"><svg t="1598929406215" class="icon" viewBox="0 0 1024 1024" version="1.1" xmlns="http://www.w3.org/2000/svg" p-id="6565" xmlns:xlink="http://www.w3.org/1999/xlink" width="32" height="32"><defs><style type="text/css"></style></defs><path d="M621.02 950.637H172.146a98.954 98.954 0 0 1-98.954-99.21V173.254c0-54.766 44.359-99.039 98.954-99.295H850.49a98.954 98.954 0 0 1 99.295 99.21l-1.621 448.618v0.17a36.681 36.681 0 0 0 73.192 0l1.45-448.618v-0.17A172.145 172.145 0 0 0 850.66 1.024H172.146A171.89 171.89 0 0 0 0.171 173.169v678.43a171.463 171.463 0 0 0 50.33 121.814 171.677 171.677 0 0 0 121.816 50.33h448.788a36.51 36.51 0 1 0-0.085-73.02" fill="#409EFF" p-id="6566"></path><path d="M1012.228 961.385L872.84 822.083a219.49 219.49 0 0 0-333.798-282.36 219.49 219.49 0 0 0 282.359 333.884l139.303 139.388a36.681 36.681 0 0 0 51.61-51.61z m-318.016-120.28a146.212 146.212 0 1 1 0-292.424 146.212 146.212 0 0 1 0.085 292.425zM803.914 330.13a36.681 36.681 0 1 0 0-73.192l-584.51-0.341a36.681 36.681 0 0 0 0 73.191l584.51 0.256zM438.553 548.85a36.34 36.34 0 0 0 31.563-54.68 36.51 36.51 0 0 0-31.563-18.255H219.405a36.51 36.51 0 0 0 0 72.935h219.233zM219.49 694.893a36.51 36.51 0 0 0 0 72.936h146.127a36.681 36.681 0 0 0 31.819-18 36.681 36.681 0 0 0-31.819-54.936H219.405z" fill="#409EFF" p-id="6567"></path></svg>