<?xml version="1.0" standalone="no"?><!DOCTYPE svg PUBLIC "-//W3C//DTD SVG 1.1//EN" "http://www.w3.org/Graphics/SVG/1.1/DTD/svg11.dtd"><svg t="1598929186963" class="icon" viewBox="0 0 1024 1024" version="1.1" xmlns="http://www.w3.org/2000/svg" p-id="2600" xmlns:xlink="http://www.w3.org/1999/xlink" width="32" height="32"><defs><style type="text/css"></style></defs><path d="M366.36444445 531.72148109l194.66619221-194.18073998L754.72592555 531.72148109v388.36148224H366.36444445z" fill="#ffffff" p-id="2601"></path><path d="M285.68234667 864.06181887h452.63530666v-252.09514667a28.15620779 28.15620779 0 0 1 28.25329778-28.01057109 28.15620779 28.15620779 0 0 1 28.30184334 28.01057109v280.1057189a28.15620779 28.15620779 0 0 1-28.30184334 28.01057223H257.38050333a28.15620779 28.15620779 0 0 1-28.25329778-28.01057223v-280.1057189a28.15620779 28.15620779 0 0 1 28.25329778-28.01057109 28.15620779 28.15620779 0 0 1 28.30184334 28.01057109v252.09514667zM512 211.03198775l-340.01047666 336.66086003a28.49602333 28.49602333 0 0 1-40.04977777 0 27.81639111 27.81639111 0 0 1 0-39.61287112l360.01109333-356.46729557a28.49602333 28.49602333 0 0 1 40.04977777 0l360.05963776 356.46729557a27.86493667 27.86493667 0 0 1 0 39.70996111 28.54456889 28.54456889 0 0 1-40.04977777 0L512 211.08053332v-0.04854557z" fill="#333333" p-id="2602"></path></svg>